<?xml version="1.0" encoding="UTF-8" standalone="no"?>
<!-- Created with Inkscape (http://www.inkscape.org/) -->

<svg
   xmlns:dc="http://purl.org/dc/elements/1.1/"
   xmlns:cc="http://creativecommons.org/ns#"
   xmlns:rdf="http://www.w3.org/1999/02/22-rdf-syntax-ns#"
   xmlns:svg="http://www.w3.org/2000/svg"
   xmlns="http://www.w3.org/2000/svg"
   xmlns:sodipodi="http://sodipodi.sourceforge.net/DTD/sodipodi-0.dtd"
   xmlns:inkscape="http://www.inkscape.org/namespaces/inkscape"
   width="344.75204"
   height="342.68304"
   id="svg2987"
   version="1.1"
   inkscape:version="0.48.5 r10040"
   sodipodi:docname="Vektor.svg">
  <defs
     id="defs2989" />
  <sodipodi:namedview
     id="base"
     pagecolor="#ffffff"
     bordercolor="#666666"
     borderopacity="1.0"
     inkscape:pageopacity="0.0"
     inkscape:pageshadow="2"
     inkscape:zoom="1.2"
     inkscape:cx="174.87168"
     inkscape:cy="112.43101"
     inkscape:current-layer="layer1"
     inkscape:document-units="px"
     showgrid="false"
     inkscape:window-width="1920"
     inkscape:window-height="1018"
     inkscape:window-x="-8"
     inkscape:window-y="-8"
     inkscape:window-maximized="1"
     showguides="true"
     inkscape:guide-bbox="true"
     fit-margin-top="0"
     fit-margin-left="0"
     fit-margin-right="0"
     fit-margin-bottom="0" />
  <metadata
     id="metadata2992">
    <rdf:RDF>
      <cc:Work
         rdf:about="">
        <dc:format>image/svg+xml</dc:format>
        <dc:type
           rdf:resource="http://purl.org/dc/dcmitype/StillImage" />
        <dc:title />
      </cc:Work>
    </rdf:RDF>
  </metadata>
  <g
     id="layer1"
     inkscape:label="Layer 1"
     inkscape:groupmode="layer"
     transform="translate(-168.24042,-99.01765)">
    <path
       sodipodi:type="arc"
       style="fill:#ff9955;fill-opacity:0.46560848;fill-rule:evenodd;stroke:#000000;stroke-width:1.00007057;stroke-linecap:butt;stroke-linejoin:miter;stroke-miterlimit:4;stroke-opacity:0;stroke-dasharray:none"
       id="path3058"
       sodipodi:cx="402.08334"
       sodipodi:cy="292.08334"
       sodipodi:rx="157.08333"
       sodipodi:ry="157.08333"
       d="m 559.16667,292.08334 c 0,86.75473 -70.3286,157.08333 -157.08333,157.08333 -86.75472,0 -157.08332,-70.3286 -157.08332,-157.08333 0,-86.75472 70.3286,-157.08332 157.08332,-157.08332 86.75473,0 157.08333,70.3286 157.08333,157.08332 z"
       transform="matrix(1.084876,0,0,1.079181,-95.661129,-46.132194)" />
    <path
       style="fill:#6f4212;fill-opacity:1;stroke:#000000;stroke-width:1.07566011;stroke-linecap:butt;stroke-linejoin:miter;stroke-miterlimit:4;stroke-opacity:1;stroke-dasharray:none"
       d="m 179.20314,324.29931 327.24623,-9.5272 c 0,0 -27.33417,118.74136 -160.66286,123.46314 C 219.17214,440.53127 179.20314,324.29931 179.20314,324.29931 z"
       id="path3875"
       inkscape:connector-curvature="0"
       sodipodi:nodetypes="cccc" />
    <path
       sodipodi:type="arc"
       style="fill:#ff9955;fill-opacity:0.22222224;fill-rule:evenodd;stroke:#000000;stroke-width:1.00007057;stroke-linecap:butt;stroke-linejoin:miter;stroke-miterlimit:4;stroke-opacity:1;stroke-dasharray:none"
       id="path3058-4"
       sodipodi:cx="402.08334"
       sodipodi:cy="292.08334"
       sodipodi:rx="157.08333"
       sodipodi:ry="157.08333"
       d="m 559.16667,292.08334 c 0,86.75473 -70.3286,157.08333 -157.08333,157.08333 -86.75472,0 -157.08332,-70.3286 -157.08332,-157.08333 0,-86.75472 70.3286,-157.08332 157.08332,-157.08332 86.75473,0 157.08333,70.3286 157.08333,157.08332 z"
       transform="matrix(1.084876,0,0,1.079181,-94.165182,-45.494724)" />
    <path
       style="fill:#59580d;fill-opacity:1;stroke:#000000;stroke-width:1.07351303px;stroke-linecap:butt;stroke-linejoin:miter;stroke-opacity:1"
       d="m 177.73329,322.89457 c 2.79561,15.43174 234.83098,63.73982 328.31609,-6.70948 7.76543,-20.52752 -331.1117,-8.72228 -328.31609,6.70948 z"
       id="path3884"
       inkscape:connector-curvature="0"
       sodipodi:nodetypes="zcz" />
    <path
       style="fill:#264300;fill-opacity:1;stroke:#000000;stroke-width:0.48283187;stroke-linecap:butt;stroke-linejoin:miter;stroke-miterlimit:4;stroke-opacity:1;stroke-dasharray:none"
       d="m 348.90448,258.07666 c 0,0 -13.88141,2.41416 -16.29556,-0.40236 -2.41418,-2.81651 -13.27788,2.21297 -16.29559,2.0118 -3.0177,-0.20126 -10.46136,4.42595 -16.69794,3.0177 -6.23658,-1.40827 -8.0472,1.40825 -11.66844,0.20126 -3.62123,-1.20708 -6.03539,-0.60353 -5.83422,-3.01771 0.20126,-2.41415 -4.82831,3.62126 -4.82831,-1.00589 0,-4.62714 -3.82242,0 -3.0177,-6.84012 0.80471,-6.84011 2.61532,-4.82832 4.62714,-11.86961 2.01179,-7.0413 3.8224,-7.44366 7.84601,-10.05898 4.0236,-2.61535 -4.62714,-10.2602 1.00589,-8.85193 5.63305,1.40827 4.42598,2.41416 9.25429,-2.0118 4.82831,-4.42595 4.22478,-6.23658 9.05311,-9.45547 4.82831,-3.21888 5.43186,-3.01768 8.04719,-1.20708 2.61534,1.81063 -0.40236,-6.84011 7.64484,-6.23656 8.04719,0.60353 15.69204,1.00589 18.10619,-1.40826 2.41416,-2.41416 0.60355,-3.62124 5.83422,-3.01771 5.23067,0.60355 4.62715,2.61535 9.25429,-1.00589 4.62712,-3.62123 3.62123,-2.61534 8.65073,-0.60355 5.02948,2.0118 8.24838,6.03541 11.26606,4.42595 3.01771,-1.60941 1.00591,-1.60941 3.2189,1.40827 2.21296,3.01771 2.81651,3.42007 6.43775,-0.20125 3.62123,-3.62124 5.63302,-4.82831 9.45545,-1.00589 3.82242,3.82242 15.28967,3.21887 11.66844,9.05309 -3.62123,5.83422 -0.20126,9.85782 1.40827,11.06489 1.60943,1.20708 3.42004,2.41418 6.43775,1.40827 3.0177,-1.00588 4.22478,0.40236 3.0177,2.61535 -1.20708,2.21296 3.21887,1.40825 6.84011,1.00589 3.62123,-0.40236 4.82831,-1.00589 4.62714,2.21298 -0.20126,3.21888 -0.40236,-3.62123 2.21297,0.40236 2.61534,4.0236 6.2366,2.61535 4.42597,5.83422 -1.81063,3.21888 -5.43186,2.81652 -9.0531,4.22476 -3.62123,1.40827 2.0118,1.2071 -1.40826,4.42598 -3.42005,3.21887 -5.83422,6.03541 -7.0413,5.0295 -1.20708,-1.00591 -7.0413,-3.82242 -7.0413,1.40825 0,5.23069 3.21887,7.64484 -2.41415,8.44956 -5.63303,0.80472 -5.63303,4.42595 -10.86373,1.81061 -5.23067,-2.61533 -4.22476,-5.23067 -10.46134,-2.61533 -6.23658,2.61533 -8.24837,4.0236 -10.26017,1.60944 -2.01182,-2.41416 -5.63305,-3.21887 -8.44957,-0.20126 -2.81651,3.01771 -18.70973,-0.60352 -18.70973,-0.60352 z"
       id="path4050"
       inkscape:connector-curvature="0" />
    <path
       style="fill:#784421;stroke:#000000;stroke-width:0.96566373px;stroke-linecap:butt;stroke-linejoin:miter;stroke-opacity:1"
       d="m 350.23092,256.69554 c 0,0 -3.5564,-0.14224 -5.69022,0.14224 -2.13385,0.28451 -5.12121,4.83668 -7.96634,5.54797 -2.84509,0.71127 -3.69862,3.12962 -5.26344,0.2845 -1.56482,-2.84511 -2.84512,-3.12961 -3.55641,-4.83667 -0.71126,-1.70709 -0.42674,-5.12123 -1.99158,-8.1086 -1.5648,-2.98736 -0.85353,-3.69865 -3.27188,-6.25924 -2.41835,-2.56061 -3.12962,-2.56061 -0.14224,-5.40572 2.98735,-2.84512 7.25503,-5.83249 7.25503,-5.83249 0,0 -0.85353,3.41416 -2.98736,6.40151 -2.13385,2.98738 1.5648,6.82829 2.41833,7.25505 0.85355,0.42677 4.40993,7.82405 5.69025,8.10856 1.28027,0.28452 4.12541,5.97475 7.25502,-0.85351 3.12962,-6.82828 2.98738,-8.3931 6.68603,-8.96213 3.69864,-0.56903 3.69864,-0.14224 5.54798,1.70708 1.84933,1.84932 2.27609,0.42677 2.98736,4.26765 0.71127,3.84091 -6.97053,6.54378 -6.97053,6.54378 z"
       id="path4007-4-8"
       inkscape:connector-curvature="0" />
    <path
       style="fill:#803300;stroke:#000000;stroke-width:0.96566373px;stroke-linecap:butt;stroke-linejoin:miter;stroke-opacity:1"
       d="m 317.05519,323.26245 c 0,0 28.3161,-3.77212 22.33099,-11.46725 -5.9851,-7.69513 -9.00281,-6.33719 -9.80753,-14.48496 -0.80472,-8.14779 6.23658,-8.44956 12.0708,-14.28378 5.83422,-5.83422 9.75723,-9.35487 11.06489,-13.47905 1.30769,-4.1242 0.50297,-13.07671 -5.0295,-15.49086 -5.53242,-2.41416 -13.98199,1.60946 -23.03508,6.03541 -9.0531,4.42595 -11.46725,3.62123 -15.2897,3.11829 -3.8224,-0.50297 -6.03539,3.92301 -7.44363,1.10647 -1.40827,-2.81652 -4.02362,-6.53833 -6.73957,-9.05309 -2.71591,-2.51477 -5.13006,-2.71593 -3.92299,-3.92301 1.20708,-1.20708 1.60944,-4.52654 4.22476,-0.60353 2.61535,3.92301 3.52067,7.14188 9.1537,7.9466 5.63303,0.80472 14.88732,0.40236 19.01152,-3.01768 4.12417,-3.42007 6.63894,-8.2484 10.86372,-8.44957 4.22478,-0.20126 6.94069,-1.91121 14.88731,1.71002 7.9466,3.62124 6.43775,2.41416 6.43775,2.41416 0,0 2.31357,-1.10647 2.9171,-3.92301 0.60355,-2.81652 -2.81651,-10.66253 -2.0118,-11.06489 0.80474,-0.40236 5.13009,-1.91121 5.23067,-0.40236 0.10052,1.50885 -2.7159,0.30177 -1.30766,3.31946 1.40827,3.0177 4.9289,6.33718 4.1242,7.84601 -0.80474,1.50886 -4.92892,6.43777 -5.02952,8.75135 -0.10052,2.31354 1.81062,4.72772 5.93482,-1.1065 4.12418,-5.83422 10.66253,-3.31946 13.98201,-4.1242 3.31946,-0.80472 3.62124,-4.22476 6.03539,-7.34305 2.41418,-3.11829 6.94072,-8.65075 9.65665,-7.34307 2.71593,1.30766 -1.50886,2.81651 -2.71593,2.71593 -1.20708,-0.10052 -6.94072,10.15959 -6.23658,11.26608 0.70413,1.10649 7.54426,2.71593 9.35489,2.51474 1.8106,-0.20125 2.51474,0.80472 1.10647,1.40827 -1.40825,0.60353 -11.26608,1.10647 -14.78673,1.40825 -3.52065,0.30177 -16.09439,-1.20708 -17.40208,8.44956 -1.30766,9.65665 -3.42004,6.43777 -3.42004,6.43777 0,0 1.71002,7.04128 0.70411,8.04719 -1.0059,1.00591 -6.13597,4.92889 -9.85779,9.35487 -3.72184,4.42595 -12.47316,13.07668 -6.94071,15.39025 5.53244,2.31357 5.9348,-0.10052 7.74543,5.83422 1.81061,5.93481 1.1065,10.46137 5.73362,10.46137 4.62714,0 3.72181,3.31945 7.24246,3.923 3.52067,0.60355 4.02362,1.60944 7.44366,1.20708 3.42006,-0.40236 7.44368,-2.01179 9.1537,-1.00591 1.71002,1.00591 3.42006,0.40238 3.42006,0.40238 0,0 -8.24837,0.40236 -9.35486,1.81061 -1.1065,1.40827 -9.75723,1.40827 -12.17141,0.80472 -2.41416,-0.60353 -3.01768,-1.50885 -5.02948,-1.40825 -2.0118,0.10052 -9.25428,-0.30177 -11.16547,1.91119 -1.91122,2.21299 -4.62715,2.0118 -2.61535,4.62714 2.0118,2.61535 3.31946,3.01771 3.82242,4.72775 0.50295,1.71002 -8.44956,-2.51476 -8.75134,-5.02952 -0.30175,-2.51474 1.40827,-3.31946 1.30769,-4.02359 -0.10052,-0.70414 -0.20126,-1.81061 -2.81652,-1.60944 -2.61535,0.20125 -4.22478,-0.10052 -8.95253,0.9053 -4.72771,1.00591 -4.52654,1.91124 -7.84602,2.31357 -3.31946,0.40236 -3.92298,1.20708 -7.24246,0.10052 -3.31946,-1.10647 -6.43775,-1.40824 -7.74544,-3.01768 -1.30766,-1.60946 3.42007,0.30177 6.73955,-1.20708 3.31946,-1.50885 2.96738,-1.40827 2.96738,-1.40827 z"
       id="path4005-9-8-2"
       inkscape:connector-curvature="0" />
    <path
       style="fill:#264300;fill-opacity:1;stroke:#000000;stroke-width:0.96566373px;stroke-linecap:butt;stroke-linejoin:miter;stroke-opacity:0"
       d="m 286.69143,253.19109 c 7.25505,3.69864 21.33836,1.99156 20.05804,-2.13385 -1.28029,-4.12541 -5.4057,-10.10016 -5.1212,-11.2382 0.28452,-1.13803 9.24663,-7.68181 13.65657,-9.38887 4.40991,-1.70708 8.25081,-2.84511 8.25081,-2.84511 0,0 -4.12541,2.56059 -1.99158,6.40149 2.13385,3.84091 0.56903,3.2719 3.98317,4.8367 3.41412,1.5648 5.54796,0 7.25505,-0.56903 1.70706,-0.569 3.41412,-3.41414 6.11699,-5.1212 2.70285,-1.70706 2.70285,-5.54796 5.83247,-2.13382 3.12964,3.41412 2.98737,3.98315 4.26767,4.69443 1.28032,0.71127 0.71129,1.56482 3.98317,1.84933 3.27188,0.2845 3.41414,-0.14224 5.83249,0.14224 2.41833,0.2845 4.12541,0.85353 6.54376,0.14224 2.41832,-0.71127 5.1212,-2.98738 6.11699,-3.12962 0.99579,-0.14224 3.12962,-1.13805 6.54376,-0.28452 3.41414,0.85353 5.69023,0.85353 8.10858,1.56482 2.41835,0.71129 3.55638,0.71129 4.26767,1.13805 0.71127,0.42677 1.42256,0.71127 3.27188,1.70706 1.84932,0.99579 3.41414,2.27609 4.97894,1.70706 1.56482,-0.56903 2.56061,-2.27609 2.56061,-2.27609 0,0 3.55638,-2.56059 -2.84512,-5.54796 -6.40149,-2.98738 -3.27188,-4.26767 -21.62286,-8.53535 -18.35098,-4.26767 -11.66496,-7.53955 -31.01175,-6.97054 -19.34677,0.56903 -15.79039,-4.69442 -26.60182,1.28032 -10.81143,5.97473 -6.97052,8.10857 -16.3594,13.08751 -9.38887,4.97896 -16.07489,21.62288 -16.07489,21.62288 z"
       id="path4077"
       inkscape:connector-curvature="0" />
    <path
       sodipodi:type="arc"
       style="fill:#ff9955;fill-opacity:0.14814812;fill-rule:evenodd;stroke:#000000;stroke-width:1.00007057;stroke-linecap:butt;stroke-linejoin:miter;stroke-miterlimit:4;stroke-opacity:0;stroke-dasharray:none"
       id="path3058-4-0-4-5"
       sodipodi:cx="402.08334"
       sodipodi:cy="292.08334"
       sodipodi:rx="157.08333"
       sodipodi:ry="157.08333"
       d="m 559.16667,292.08334 c 0,86.75473 -70.3286,157.08333 -157.08333,157.08333 -86.75472,0 -157.08332,-70.3286 -157.08332,-157.08333 0,-86.75472 70.3286,-157.08332 157.08332,-157.08332 86.75473,0 157.08333,70.3286 157.08333,157.08332 z"
       transform="matrix(1.084876,0,0,1.079181,-97.011766,-43.559774)" />
    <path
       style="fill:#666666;stroke:#000000;stroke-width:1.07351303px;stroke-linecap:butt;stroke-linejoin:miter;stroke-opacity:1"
       d="m 245.27517,325.66169 c 1.4537,1.56553 5.36755,3.46654 7.71586,4.47295 2.34831,1.00642 2.79561,1.56555 6.03852,1.7892 3.24289,0.22363 5.14392,0.4473 7.93951,0 2.79561,-0.4473 6.374,-0.8946 7.60406,-1.45373 1.23008,-0.5591 2.68378,-1.56553 3.91386,-2.57196 1.23006,-1.00641 1.34188,-1.67736 2.01283,-2.12466 0.67094,-0.44728 1.45371,-0.5591 1.90101,-1.45371 0.4473,-0.8946 2.01284,-2.23648 2.01284,-2.23648 l -0.4473,-5.14392 c 0,0 -0.33546,-0.33548 -1.78919,-2.01284 -1.45373,-1.67735 -1.11825,-2.12465 -2.34831,-2.68378 -1.23005,-0.55913 -0.22365,-0.8946 -2.34831,-1.23008 -2.12466,-0.33545 -1.67735,-0.44728 -3.69019,-0.67093 -2.01285,-0.22365 -0.67095,-0.4473 -4.02569,-0.4473 -3.35471,0 -3.69019,-0.11176 -5.81485,0.11176 -2.12466,0.22365 -2.90744,0.8946 -3.91386,0.33548 -1.00641,-0.55913 -2.34831,-2.23649 -3.01924,-2.46014 -0.67096,-0.22365 1.0064,0.11176 -1.11826,-0.22365 -2.12466,-0.33548 -1.34188,-0.8946 -3.24289,-0.33548 -1.90101,0.55913 -0.67095,0.44731 -3.35473,1.34189 -2.68379,0.8946 -2.34831,-1.00641 -4.02567,2.34831 -1.67738,3.35473 -1.00643,3.69021 -1.11826,5.36757 -0.11176,1.67736 1.23008,0.78277 -0.67095,2.68378 -1.90101,1.90103 -1.67736,2.01284 -3.80201,3.01926 -2.12466,1.00641 -2.12466,1.00641 -3.01924,1.34189 -0.89461,0.33547 -2.46016,0.33547 -0.44731,1.00642 2.01284,0.67093 2.46014,1.00641 3.80202,0.89461 1.3419,-0.11176 5.25575,0.33547 5.25575,0.33547 z"
       id="path4245"
       inkscape:connector-curvature="0" />
    <path
       style="fill:#666666;stroke:#000000;stroke-width:1.07351303px;stroke-linecap:butt;stroke-linejoin:miter;stroke-opacity:1"
       d="m 369.28829,316.04478 c 1.4537,0.78277 5.25574,2.12468 7.04493,2.57198 1.78918,0.44728 3.69019,1.11823 5.92669,0.78275 2.23647,-0.33547 2.34831,-0.33547 4.80843,-0.67095 2.46013,-0.33547 2.68378,-0.11176 4.58481,-0.5591 1.90101,-0.4473 4.36115,-0.55913 5.47938,-0.78278 1.11825,-0.22365 2.57196,-0.11176 2.79561,-0.67095 0.22365,-0.55913 1.23006,-0.44728 0.67095,-1.90101 -0.55912,-1.45373 0.22363,-1.90101 0.33548,-3.35474 0.11176,-1.45371 0.89458,-1.11823 0.44728,-2.01283 -0.44728,-0.89458 -0.78276,-1.45371 -0.78276,-1.45371 0,0 -1.11825,-1.23008 -2.90743,-2.79561 -1.78919,-1.56553 -2.12466,-1.67736 -2.90744,-2.23649 -0.78276,-0.55912 -0.78276,-0.78275 -2.23649,-2.3483 -1.4537,-1.56554 -0.33547,-2.01284 -1.901,-2.12466 -1.56556,-0.11176 -3.91387,0.4473 -6.93311,1.67735 -3.01926,1.23008 -3.01926,0.55913 -4.58479,1.90101 -1.56554,1.34191 -1.45373,1.34191 -2.68379,2.12468 -1.23005,0.78276 -2.46013,1.34189 -3.57836,1.11823 -1.11826,-0.22365 1.11823,-3.46654 -2.12469,-0.55912 -3.24289,2.90743 -3.13106,2.57196 -4.02566,3.57839 -0.89458,1.0064 -1.00643,0.8946 -1.78919,2.34831 -0.78277,1.4537 -0.4473,2.34831 -0.11176,3.69019 0.33548,1.34188 4.47297,1.67736 4.47297,1.67736 z"
       id="path4247"
       inkscape:connector-curvature="0" />
  </g>
</svg>
